<?xml version="1.0" encoding="UTF-8"?>
<svg id="Camada_2" data-name="Camada 2" xmlns="http://www.w3.org/2000/svg" viewBox="0 0 306.59 22.7">
  <defs><style>.cls-1{fill:#fff;}</style></defs>
  <g>
    <path class="cls-1" d="M0,22.7V0h17.05C18.55,0,19.8.3,20.82.91c1.01.61,1.77,1.43,2.28,2.46.51,1.04.76,2.19.76,3.47,0,1.41-.36,2.69-1.09,3.83-.73,1.15-1.81,1.99-3.24,2.54l4.92,9.48h-4.03l-4.49-8.86H3.57v8.86H0ZM3.57,10.81h12.62c1.28,0,2.27-.36,2.97-1.09.7-.73,1.06-1.67,1.06-2.84,0-.77-.16-1.44-.48-2.02-.32-.57-.78-1.01-1.37-1.32-.59-.31-1.32-.46-2.18-.46H3.57v7.73Z"/>
    <path class="cls-1" d="M30.43,22.7V0h22.34v3.07h-18.77v6.51h16.88v3.04h-16.88v7.04h19.03v3.04h-22.6Z"/>
    <path class="cls-1" d="M67.74,22.7L56.8,0h4.03l6.81,14.44c.2.44.43.95.69,1.54.26.58.53,1.17.81,1.77.28.59.51,1.11.71,1.55h.3c.2-.42.42-.92.68-1.5.25-.58.52-1.17.79-1.75.28-.58.52-1.11.74-1.57L79.17,0h3.83l-10.9,22.7h-4.36Z"/>
    <path class="cls-1" d="M87.79,22.7V0h22.34v3.07h-18.77v6.51h16.88v3.04h-16.88v7.04h19.03v3.04h-22.6Z"/>
    <g><polygon class="cls-1" points="120.67 9.58 120.67 9.57 117.1 9.57 117.1 12.6 139.49 12.6 139.49 9.58 120.67 9.58"/><polygon class="cls-1" points="117.1 19.7 117.1 22.7 139.5 22.7 139.5 19.67 117.1 19.7"/><polygon class="cls-1" points="120.67 3.08 120.67 3.07 139.52 3.07 139.52 0 117.1 0 117.1 3.08 120.67 3.08"/></g>
  </g>
  <g>
    <path class="cls-1" d="M158.44,22.7V.03h14.97c1.43,0,2.62.2,3.57.59.95.4,1.66.98,2.15,1.75.48.77.73,1.73.73,2.87,0,.88-.17,1.7-.5,2.44-.33.75-.8,1.39-1.42,1.92-.62.53-1.37.92-2.25,1.19v.17c.97.13,1.82.44,2.56.93.74.48,1.32,1.14,1.73,1.97.42.83.63,1.84.63,3.06,0,1.39-.32,2.51-.96,3.35-.64.85-1.5,1.47-2.58,1.85-1.08.39-2.27.58-3.57.58h-15.07ZM160.35,10.24h12.09c.88,0,1.73-.17,2.56-.51s1.51-.86,2.05-1.57c.54-.7.81-1.61.81-2.71,0-1.32-.4-2.27-1.21-2.86-.8-.58-1.9-.88-3.29-.88h-13.02v8.52ZM160.35,21.02h13.22c1.54,0,2.77-.35,3.68-1.04.91-.69,1.37-1.81,1.37-3.35,0-1.1-.23-2-.68-2.69-.45-.69-1.06-1.2-1.83-1.52s-1.63-.48-2.58-.48h-13.18v9.09Z"/>
    <path class="cls-1" d="M187.48,22.7V.03h15.96c1.39,0,2.58.28,3.57.83.99.55,1.75,1.32,2.28,2.3.53.98.79,2.1.79,3.35,0,1.5-.39,2.8-1.16,3.92-.77,1.11-1.86,1.87-3.27,2.26l5.02,10.01h-2.15l-4.89-9.75h-14.24v9.75h-1.92ZM189.4,11.27h13.84c1.54,0,2.75-.45,3.62-1.34.87-.89,1.3-2.03,1.3-3.42,0-.95-.2-1.78-.59-2.49-.4-.72-.96-1.28-1.69-1.69-.73-.41-1.61-.61-2.64-.61h-13.84v9.55Z"/>
    <path class="cls-1" d="M246.29,22.7V.03h2.05l16.32,17.35c.22.22.46.47.71.76.25.29.5.56.74.81.24.25.44.48.59.68h.23V.03h1.92v22.67h-1.75l-16.49-17.51c-.42-.44-.83-.89-1.24-1.35-.41-.46-.72-.81-.94-1.06h-.23v19.92h-1.92Z"/>
    <path class="cls-1" d="M277.39,22.7V.03h10.97c2.71,0,5.03.42,6.97,1.27,1.94.85,3.43,2.11,4.48,3.78,1.05,1.67,1.57,3.77,1.57,6.28s-.52,4.6-1.57,6.28c-1.05,1.67-2.54,2.94-4.48,3.78-1.94.85-4.26,1.27-6.97,1.27h-10.97ZM279.3,21.02h9.05c1.54,0,2.98-.17,4.31-.5,1.33-.33,2.51-.86,3.52-1.6,1.01-.74,1.81-1.7,2.38-2.87.57-1.18.86-2.62.86-4.31v-.73c0-1.7-.29-3.13-.86-4.31-.57-1.18-1.37-2.14-2.38-2.88-1.01-.74-2.19-1.27-3.52-1.6-1.33-.33-2.77-.5-4.31-.5h-9.05v19.3Z"/>
    <path class="cls-1" d="M228.68.03h-2.38l-11.73,22.67h2.05l3.19-6.19h-.01s1.02-1.97,1.02-1.97h0l4.2-8.1c.15-.29.36-.69.63-1.22.26-.53.55-1.1.86-1.72.31-.62.58-1.18.83-1.69h.26c.18.33.36.71.56,1.12.2.42.4.84.61,1.27s.41.84.61,1.22c.2.39.37.72.53,1.01l4.06,7.9.98,1.88h.01l3.34,6.48h2.11L228.68.03Z"/>
  </g>
  <g><path class="cls-1" d="M304.34,22.7c-1.24,0-2.25-1.01-2.25-2.25s1.01-2.25,2.25-2.25,2.25,1.01,2.25,2.25-1.01,2.25-2.25,2.25ZM304.34,18.53c-1.06,0-1.92.86-1.92,1.92s.86,1.92,1.92,1.92,1.92-.86,1.92-1.92-.86-1.92-1.92-1.92Z"/><path class="cls-1" d="M303.22,21.55v-2.19h1.55c.13,0,.25.03.35.08.1.05.17.13.22.22.05.1.08.2.08.32,0,.15-.04.27-.11.38-.07.11-.18.18-.32.22l.49.97h-.21l-.47-.94h-1.38v.94h-.19ZM303.4,20.44h1.34c.15,0,.27-.04.35-.13.08-.09.13-.2.13-.33,0-.09-.02-.17-.06-.24-.04-.07-.09-.12-.16-.16s-.16-.06-.26-.06h-1.34v.92Z"/></g>
</svg>
