<?xml version="1.0" encoding="UTF-8"?>
<svg id="Camada_2" data-name="Camada 2" xmlns="http://www.w3.org/2000/svg" viewBox="0 0 55.85 47.79">
  <defs><style>.cls-1{fill:#fff;}</style></defs>
  <g><path class="cls-1" d="M26.47,24.78c2.15-.68,13.8-5.96,13.8-5.96l.19-10.35V0H0v8.47h28.41v10.35s.19,4.33-2.07,5.83l-10.16,2.82,19.38,20.32h13.36l-22.45-23.01Z"/><polygon class="cls-1" points=".94 42.9 4.7 47.41 15.24 47.79 8.47 38.38 .94 42.9"/></g>
  <g><path class="cls-1" d="M53.6,47.79c-1.24,0-2.25-1.01-2.25-2.25s1.01-2.25,2.25-2.25,2.25,1.01,2.25,2.25-1.01,2.25-2.25,2.25ZM53.6,43.62c-1.06,0-1.92.86-1.92,1.92s.86,1.92,1.92,1.92,1.92-.86,1.92-1.92-.86-1.92-1.92-1.92Z"/><path class="cls-1" d="M52.48,46.63v-2.19h1.55c.13,0,.25.03.35.08.1.05.17.13.22.22.05.1.08.2.08.32,0,.15-.04.27-.11.38-.07.11-.18.18-.32.22l.49.97h-.21l-.47-.94h-1.38v.94h-.19ZM52.67,45.53h1.34c.15,0,.27-.04.35-.13.08-.09.13-.2.13-.33,0-.09-.02-.17-.06-.24-.04-.07-.09-.12-.16-.16s-.16-.06-.26-.06h-1.34v.92Z"/></g>
</svg>
