<?xml version="1.0" encoding="UTF-8"?>
<svg id="Camada_1" data-name="Camada 1" xmlns="http://www.w3.org/2000/svg" viewBox="0 0 914.14 192.95">
  <g>
    <g>
      <path d="M852.78,26.29h-10.33l-2.72,5.19h-2.09l8.77-16.21h2.48l8.77,16.21h-2.12l-2.76-5.19ZM843.09,25.05h9.05l-1.06-2c-1.1-2.05-2.3-4.67-3.04-6.4h-.78c-.81,1.81-2.02,4.32-3.11,6.4l-1.06,2Z"/>
      <path d="M869.67,24.45h-5.41v7.02h-1.98V15.27h7.96c5.16,0,7.25,1.78,7.25,4.56,0,2.49-1.98,4.19-5.76,4.54l6.97,6.81v.3h-2.19l-6.83-7.02ZM864.26,16.59v6.54h5.8c3.4,0,5.45-1.14,5.45-3.3s-1.31-3.24-5.48-3.24h-5.76Z"/>
      <path d="M883.31,23.35c0-4.92,3.71-8.37,10.36-8.37s10.4,3.46,10.4,8.37c0,3.11-1.45,5.65-4.24,7.11l2.76,3.4v.3h-1.98l-2.3-3.05c-1.31.43-2.86.68-4.63.68-6.69,0-10.36-3.51-10.36-8.43ZM902.09,23.35c0-4.13-2.76-7-8.42-7s-8.38,2.86-8.38,7,2.69,7.05,8.38,7.05,8.42-2.91,8.42-7.05Z"/>
    </g>
    <path d="M837.64,45.37h13.9v1.38h-11.92v5.86h10.57v1.38h-10.57v6.21h11.88v1.38h-13.87v-16.21Z"/>
    <g>
      <path d="M866.34,61.58v-16.21h1.98v16.21h-1.98Z"/>
      <path d="M880.99,52.39c-1.56-1.84-2.94-3.84-4.03-5.54l-.85.03c.21,2.24.29,5.35.29,7.89v6.81h-1.95v-16.21h3.04l6.79,8.13c1.91,2.3,3.57,4.62,4.71,6.32l.74-.03c-.18-2.1-.32-5.1-.32-7.62v-6.81h1.91v16.21h-2.65l-7.67-9.18Z"/>
      <path d="M897.45,45.37h16.69v1.4h-7.36v14.8h-1.98v-14.8h-7.36v-1.4Z"/>
    </g>
  </g>
  <g>
    <path d="M857.86,158.6h-7.3c-5.2,13.37-13.62,25.13-29.1,26.12-12.5.87-21.04-5.57-30.82-11.76l-15.85-9.78c-4.58-2.6-9.04-4.7-14.24-6.56.86-.37,1.61-.74,2.35-1.24.87-.37,1.61-.74,2.48-1.24,2.35-1.24,4.58-2.6,6.81-4.08,2.1-1.49,4.33-3.1,6.32-4.71,1.98-1.73,3.96-3.47,5.82-5.32,1.86-1.86,3.59-3.84,5.33-5.82,1.61-1.98,3.1-3.96,4.33-5.94,2.85-3.96,5.2-8.3,7.18-12.75.62-1.49,1.24-2.97,1.73-4.46.62-1.86,1.24-3.71,1.86-5.45,2.36-7.43,3.59-15.35,3.59-23.53,0-45.31-36.77-82.08-82.08-82.08s-82.08,36.77-82.08,82.08c0,1.24.25,2.48.25,3.71.12,1.49.25,2.97.37,4.58.25,1.98.37,3.96.74,5.94.62,3.47,1.36,6.81,2.35,10.03.74,2.6,1.73,5.2,2.73,7.67,8.41,19.69,24.14,35.41,43.7,43.58,2.48,1.12,4.95,1.98,7.56,2.85,3.96,1.36,8.05,2.23,12.13,2.72.62.12,1.12.25,1.73.25-3.46,2.6-6.31,5.32-9.04,8.67l4.7,4.09c5.08-5.94,11.27-9.91,17.95-12.13,4.83-1.61,9.9-2.35,15.23-1.98,4.46.12,9.04,1.11,13.62,2.72,5.69,2.1,11.14,4.58,16.22,7.92l14.85,9.29,10.9,6.44c7.55,3.84,15.84,5.32,24.27,4.09,12.63-1.86,22.03-10.03,28.23-20.92,2.23-3.96,3.97-8.05,5.57-12.38l.12-.5c0-.12-.37-.12-.5-.12ZM726.25,154.39c-39.49,0-71.68-32.44-71.68-72.3,0-32.44,21.3-60.04,50.39-69.21,1.73-.5,3.46-.99,5.32-1.36.25-.12.5-.12.74-.12,1.36-.37,2.73-.62,4.21-.74.13-.12.37-.12.5-.12h.25c3.34-.62,6.81-.87,10.28-.87,2.23,0,4.33.12,6.44.37,2.1.12,4.21.37,6.32.86,2.1.25,4.08.74,6.06,1.36,1.49.37,2.97.74,4.46,1.36,1.49.49,3.1,1.11,4.58,1.73,25.75,11.02,43.83,36.77,43.83,66.73,0,39.87-32.19,72.3-71.68,72.3Z"/>
    <polygon points="355.85 4.46 349.55 4.46 273.75 158.17 282.71 162.44 298.45 130.61 303.29 121.11 352.22 20.62 353.18 20.62 402.11 121.11 406.95 130.61 422.69 162.44 431.65 158.17 355.85 4.46"/>
    <path d="M622.02,68.23c0-34.56-28.09-63.78-62.73-63.78h-93v157.74h10.17v-27.66h-.01v-17.83h.01V14.19h83.07c28.58,0,52.07,24.83,52.07,54.04s-23.49,53.31-52.32,53.31h-59.03v9.73h59.27c2.67,0,5.33-.24,7.99-.49l34.92,32.29,6.5-6.73-30.03-28.23c24.95-8.03,43.11-31.89,43.11-59.89Z"/>
    <path d="M82.11,156.15c-39.48,0-71.69-32.45-71.69-72.41S42.63,11.33,82.11,11.33c29.07,0,54.14,17.62,65.37,42.85h11.14C146.72,23.48,116.96,1.63,82.11,1.63,36.82,1.63,0,38.45,0,83.74s36.82,82.09,82.11,82.09c34.26,0,63.64-21.09,75.93-50.96h-11.31c-11.56,24.38-36.17,41.28-64.62,41.28Z"/>
    <path d="M171.27,144.19c-4.97,0-9,4.03-9,9s4.03,9,9,9,9-4.03,9-9-4.03-9-9-9Z"/>
  </g>
</svg>