<?xml version="1.0" encoding="UTF-8"?>
<svg id="Camada_1" data-name="Camada 1" xmlns="http://www.w3.org/2000/svg" viewBox="0 0 635.83 633.81">
  <path d="M537.93,516.73L264.52,157.04l281.69.04-11.41-15.26-459.47-.23C152.37,35.16,285.55-7.46,409.98,32.72c72.5,24.19,132.83,75.02,169.04,142.41l13.62-9.01c-40.83-77.31-114.82-134.59-199.23-156.3-97.34-25.07-200.79-1.45-277.95,62.77-33.05,27.47-60.33,61.47-80.1,99.52-50.71,97.61-46.63,214.41,10.49,308.4,22.48,37.01,52.51,69.22,87.77,94.71,73.11,52.81,165.57,70.94,253.37,50.22,80.55-19,150.42-68.42,195.64-138.33l-14.04-9.69-30.68,39.3ZM127.07,547.86c-57.62-46.82-95.44-114.25-105.97-188.09-10.53-70.82,5.11-142.71,44.07-202.62h179.84l66.05,85.55-39.11,51.02-155.46,210.87,11.26,10.91,192.36-260.32,206.82,272.84c-108.98,108.37-280.54,119.13-399.87,19.84Z"/>
  <path d="M617.91,334.1c-10.76.76-20.61-7.94-20.03-19.23.57-11.83,9.88-20.07,21.45-18.93,8.74.88,15.3,7.06,16.37,16.41,1.3,11.64-6.98,20.99-17.78,21.75Z"/>
</svg>